<?xml version="1.0" encoding="UTF-8"?>
<svg id="Layer_1" xmlns="http://www.w3.org/2000/svg" version="1.1" viewBox="0 0 19.7 20">
  <!-- Generator: Adobe Illustrator 30.6.0, SVG Export Plug-In . SVG Version: 2.1.4 Build 109)  -->
  <defs>
    <style>
      .st0 {
        fill: #7d97b6;
      }

      .st1 {
        fill: #14284f;
      }
    </style>
  </defs>
  <path class="st0" d="M19.7,9.3c-1.6-.4-3-1-4.5-1.6h.6c-1.8,1-3.7,1.8-5.6,2.5-.2,0-.5,0-.7,0-.9-.4-1.9-.8-2.8-1.2-.9-.4-1.9-.8-2.8-1.3h.6c-1.5.6-3,1.2-4.5,1.6,1.2-1.1,2.5-2,3.8-2.9.1,0,.3-.1.5,0,2,.6,4,1.2,5.9,2,0,0-.7,0-.7,0,1.9-.7,3.8-1.4,5.8-2,.2,0,.4,0,.6,0,1.3.9,2.6,1.8,3.8,2.9h0Z"/>
  <g>
    <path class="st1" d="M9.7,1c1.4,5.9,1.4,12.1,0,18-1.4-5.9-1.4-12.1,0-18h0Z"/>
    <path class="st1" d="M1.7,11c1.8-1.2,3.7-2,5.7-2.8.8-.2,1.7-.8,2.6-.7,2.7.9,5.3,1.9,7.7,3.5-2.9,0-5.6-.7-8.3-1.5,0,0,.6,0,.6,0-2.7.8-5.4,1.5-8.3,1.5h0Z"/>
    <path class="st1" d="M6.7,18c.7-.9,1.8-1.5,2.9-1.7,1.2,0,2.3.8,3.1,1.7-1.1.5-2.1.5-3.1.2,0,0,.5,0,.5,0-1.1.3-2.3.3-3.4-.2h0Z"/>
  </g>
</svg>