<?xml version="1.0" encoding="UTF-8"?>
<svg id="Layer_1" xmlns="http://www.w3.org/2000/svg" version="1.1" viewBox="0 0 23.3 21">
  <!-- Generator: Adobe Illustrator 30.6.0, SVG Export Plug-In . SVG Version: 2.1.4 Build 109)  -->
  <defs>
    <style>
      .st0, .st1 {
        stroke-linecap: round;
      }

      .st0, .st1, .st2 {
        stroke-miterlimit: 10;
      }

      .st0, .st1, .st2, .st3 {
        fill: none;
      }

      .st0, .st2 {
        stroke: #7d97b6;
      }

      .st1, .st3 {
        stroke: #14284f;
      }

      .st3 {
        stroke-linecap: square;
        stroke-linejoin: round;
        stroke-width: 1.7px;
      }
    </style>
  </defs>
  <path class="st2" d="M8.4,11.2c2-1.1,3.7-5.2,1.8-5.1s-.7,3.6,1.4,3.7,3.1-3.6,1.4-3.7-.9,3.9,1.1,4.6"/>
  <path class="st3" d="M10.1,15.6h3.3v-3.3s2.9-2.2,2.8-4.5-1.2-5.5-4.4-5.5-5.1,2.6-5.1,5.5,2.9,4.5,2.9,4.5v3.3h.6Z"/>
  <line class="st0" x1="4.2" y1="10.7" x2="1.2" y2="12.6"/>
  <line class="st0" x1="21.5" y1=".5" x2="18" y2="2.5"/>
  <line class="st0" x1="22.8" y1="7.1" x2="19.6" y2="6.8"/>
  <line class="st0" x1="21.7" y1="12.3" x2="19" y2="10.4"/>
  <line class="st0" x1="4" y1="6.9" x2=".5" y2="7.1"/>
  <line class="st0" x1="1.2" y1=".5" x2="4.2" y2="2.5"/>
  <line class="st1" x1="9.1" y1="18.4" x2="13.5" y2="18.4"/>
  <line class="st1" x1="9.1" y1="20.5" x2="13.5" y2="20.5"/>
</svg>