<svg xmlns="http://www.w3.org/2000/svg" viewBox="0 0 48 48" fill="none"><path d="M24 14 C20 11 12 11 8 13 L8 36 C12 34 20 34 24 37 C28 34 36 34 40 36 L40 13 C36 11 28 11 24 14 Z" fill="#14284f" opacity=".14"/><path d="M24 14 C20 11 12 11 8 13 L8 36 C12 34 20 34 24 37 C28 34 36 34 40 36 L40 13 C36 11 28 11 24 14 Z" stroke="#14284f" stroke-width="2" stroke-linejoin="round"/><path d="M24 14 L24 37" stroke="#14284f" stroke-width="2"/><path d="M12 20 C15 19 19 19 21 20 M12 25 C15 24 19 24 21 25" stroke="#7d97b6" stroke-width="1.4" stroke-linecap="round"/></svg>
