<?xml version="1.0" encoding="UTF-8"?>
<svg id="Layer_1" xmlns="http://www.w3.org/2000/svg" xmlns:xlink="http://www.w3.org/1999/xlink" version="1.1" viewBox="0 0 396.7 317.4">
  <!-- Generator: Adobe Illustrator 30.6.0, SVG Export Plug-In . SVG Version: 2.1.4 Build 109)  -->
  <defs>
    <style>
      .st0 {
        fill: none;
      }

      .st1 {
        font-family: ProximaNova-Bold, 'Proxima Nova';
        font-weight: 700;
        letter-spacing: 0em;
      }

      .st1, .st2 {
        fill: #142a50;
      }

      .st1, .st3 {
        font-size: 65px;
      }

      .st4 {
        fill: url(#linear-gradient1);
      }

      .st5 {
        fill: url(#linear-gradient);
      }

      .st6 {
        fill: #4f7094;
      }

      .st7 {
        clip-path: url(#clippath-1);
      }

      .st8 {
        fill: #fff;
      }

      .st3 {
        font-family: SignPainter-HouseScript, SignPainter;
      }

      .st3, .st9 {
        fill: #142a4f;
      }

      .st10 {
        fill: #132a4e;
        stroke: #142a4f;
        stroke-miterlimit: 10;
      }

      .st11 {
        clip-path: url(#clippath);
      }
    </style>
    <clipPath id="clippath">
      <path class="st0" d="M75.9,29.6c6.6,10.8,11.9,17.7,20.8,26.7,5.8,5.9,13.7,14.7,22,26.6-.8-1.7-1.5-3.4-2.3-5.1-23.7-10.2-66.1-40-67.7-40.5s-1.4.3-1.7.7c-.4.7,1.5,4.6,4.3,7.7,6.8,7.5,41.7,35.9,48.7,41.5.2-.7.4-1.3.7-2-11.5-2.7-23.2-5.6-35-8.7-9.6-2.5-27.2-7.8-28.3-7.7s-1,1.2-1,1.7c-.2,2.7,5.5,5.3,7.6,6.3,7.4,3.4,23.3,10.9,44.5,21,.5-.4,1-.7,1.6-1.1-6.7-.8-13.6-1.4-20.9-1.9-6.2-.4-17.1-2.2-18-.8-1.5,4.5,6.1,6,8.5,8.6,3.5,3.6,14.2,5.3,12,10.2-3.5,3.9-.8,10.5,4,12,3,2.1,7.8,2.5,10,5.5.3,0,.5,0,.8-.1,10.4-1.2,20.9-1.6,31.3-1.6,13.6-.2,26.8,2.8,40.1,4.4,11.2-.7,22.3.5,33.4,1.2,16.1,1.5,28.4,2.1,44.4,4.2,6.7,1.6,12.1,3.2,16.8,5,11.6,4.4,20.7,9,27.4,12.9,28.1,16.5,17.3,23.3,18.8,21.8,1.2-1.2-.3-12.9-13.9-27-19.5-20.2-23.1-24.7-43-36-50.2-28.6-52.5-23.5-76.3-39.4-16.6-11.1-38.9-29.5-60.4-60.4-3.7-5-6.1-7.2-7.1-6.7-1.4.7-1,7.3,2.5,15.5s11.9,19.2,19.2,29.3c6.9,9.7,13.8,18.6,20.6,26.7,1.5.4,3,.9,4.4,1.3-10-6.6-21.2-15-32.8-25.4-11.1-10-20.2-19.9-27.6-28.9-1.5-2.2-3.6-4.8-6.5-7.5-2.6-2.4-4.3-3.7-5.3-3.2s.3,7.4,3.7,13Z"/>
    </clipPath>
    <linearGradient id="linear-gradient" x1="-220.6" y1="301.4" x2="-219.6" y2="301.4" gradientTransform="translate(57990.8602 79262.5593) scale(262.6823 -262.6823)" gradientUnits="userSpaceOnUse">
      <stop offset="0" stop-color="#142a50"/>
      <stop offset="1" stop-color="#142a50"/>
    </linearGradient>
    <clipPath id="clippath-1">
      <path class="st0" d="M196.3,116.3c-14.8.5-29.2,4.7-43,9.6-11.7,4.5-21.9,12.1-32.7,18.3-24.2,13.9-45.7,32-69.1,47.1-5.2,3.4-15.9,10.2-14.7,16.5.5,2.8,3.3,4.7,5.6,5.8,1-.3,2-.5,3.1-.8,1.4-.3,2.7-.6,4-.9,0,.7,0,2.6,1.4,3.8,1.4,1.2,3.3,1,5.1.8,1.8-.2,5.1-1,8.7-3.8,1,.8,2.7,2,4.9,2.4,4.4.8,7.4-2,14.5-4.7,1.9-.7,4.8-1.7,8.5-2.5,3.1,3.4,8,2.3,11.8.8,3.9-1.1,6-2.2,10-2.6,4.6,2.6,10.4-3.8,15.3-3.8,2,0,3.7.4,5.4.8,2.7.7,5.3,1.3,8.4,0,2.6-.9,4.1-5.1,11.9-3,7.2-1.3,10.3-6.4,13.9-5.4,5.8,1.6,7.2.6,11-1.8,4.6-2.8,6.5-2.9,13.2-3.1,6.1.6,4.6,2.4,9.4,2.3,4,.8,5.9,4.2,13.7,4.4,6.6-.4,6.6,2.6,12.8,3.9,5.2,2.1,8.9,5,15.2,7.4,5.3,2.1,10.4,3.9,24.2,6.5,10.8.2,19.2.2,28.5-8.3,5.2-6,7.5-12.4,7.5-20.8-1.7-5.3-7.8-22.7-20.1-33.8-3.3-3-9.7-7.9-17.2-12.3-3.1-1.8-5.6-3.1-8-4.3-8.9-4.5-16.3-7.4-20.3-8.9-7.3-2.7-15.2-5.7-26-7.6-4.9-.9-9.1-1.4-12-1.6l-4.8-.2Z"/>
    </clipPath>
    <linearGradient id="linear-gradient1" x1="-220.7" y1="301.3" x2="-219.7" y2="301.3" gradientTransform="translate(-80109.0042 58837.7353) rotate(90) scale(266.4849 -266.4849)" gradientUnits="userSpaceOnUse">
      <stop offset="0" stop-color="#b3c1d0"/>
      <stop offset="1" stop-color="#b3c1d0"/>
    </linearGradient>
  </defs>
  <polygon class="st8" points="46.5 274.5 249.6 274.5 195 275.1 186 284.9 197.1 294.9 225.5 302.9 307.7 274.5 344.9 192.3 345 157.3 356.2 143.8 379.3 143.8 379.3 136.7 347.1 110 285.3 135.9 274.1 183.9 238.6 196.7 201.4 175.2 57.4 203.7 45.9 231.9 46.5 274.5"/>
  <g id="surface1">
    <g>
      <g>
        <path class="st8" d="M35.9,285.1v-63.3h32.8c14.7,0,22.5,10.6,22.5,21s-.8,6.7-2.2,9.5c1.9,3.2,3.1,7,3.1,11.1,0,12.6-9.5,21.7-22.6,21.7h-33.6Z"/>
        <rect class="st8" x="74.9" y="221.9" width="29.2" height="63.3"/>
        <path class="st8" d="M88.7,285.1v-63.3h30.2c14.2,0,24.5,10.1,24.5,24s-2.4,12.2-6,16l13.8,23.3h-62.6,0Z"/>
        <path class="st8" d="M126.5,285.1v-63.3h27.1c19.1,0,33,13.3,33,31.7s-13.9,31.6-33,31.6h-27.1ZM155.7,256.6c.8-.4,1.4-1.3,1.4-3.1s-.4-2.9-1.4-3.3v6.3h0Z"/>
      </g>
      <g>
        <path class="st8" d="M222.5,286.1h-.8c-2.3-.1-4.5-.7-6.4-1.6-2.1.9-4.3,1.3-6.5,1.3-5.7,0-10.7-3-13.3-8-3.5-6.7-2.3-15.8,3.2-23.8,6.6-9.6,14.4-14.9,21.9-14.9s2.7.2,3.9.5c1.1-.4,2.2-.5,3.4-.5,3.2,0,6.3,1.5,8.4,4.1,3,3.7,3.9,9,2.5,14.2,1.1,1,1.9,2.2,2.6,3.5v.2c1.6,3.5,1.3,8-.6,12.2-2.9,6.2-9.8,12.7-18.1,12.7h-.2ZM230.8,273h0ZM212.7,253.5h0Z"/>
        <path class="st8" d="M231.4,285.8c-3.4,0-6.5-1.6-8.6-4.4-3.2-4.3-3.9-9.8-1.8-16.2,2.1-6.4,15.4-31.5,20.3-38.3,2.1-3,5.4-4.8,8.9-4.8s7.4,2.1,9.5,5.7v.2c2.6,4.6,2.5,9.9,0,16,.5.6,1,1.2,1.5,1.9,3.7,5.7,3.5,14.2-.6,23.3-4.7,10.4-11.9,16.4-20,16.4s-3.4-.2-5-.7c-1.3.6-2.7.9-4.2.9h0ZM239.6,254.8h0Z"/>
      </g>
    </g>
  </g>
  <g>
    <path class="st8" d="M53.2,227.8c-4.5,0-7.5-1.7-9.4-3.3l-3.2.8-3.4-1.7c-7.7-3.9-10.1-9.1-10.8-12.9-2.4-12.8,11.4-21.8,18.9-26.6h.2c4.8-3.2,9.7-6.5,14.4-9.9-1.8-.8-3.7-2-5.3-3.8h-.6c0-.1-.2-.1-.2-.1-.3,0-1-.1-1.4-.2-3-.2-10.6-.7-14.3-7.5-5.1-.6-9.3-3-12-6.8-7.1-.9-10.3-4.6-11.7-8.3-2.3-.4-4.5-1-6.7-2.4-8.6-5.4-8-12-7.3-14.6.5-1.8,1.2-3.2,2.2-4.4-.9-2.2-1.3-4.6-.6-7.3,2.1-8.8,11.1-9,17-9.2,3.6,0,8.6-.2,14.8-1.1,1-.1,4.9-.9,10.8-2.1h0c-3.8-3.9-5.1-9.1-3.4-14l.4-1.1.6-1c.3-.4.5-.8.8-1.2-1.4-.6-2.6-1.2-3.6-1.7-3.9-1.8-14.2-6.5-13.4-16.3.4-6.8,5.3-10.1,9.4-10.7h.8c0,0,.9,0,.9,0,2.1,0,3.7.4,17,4.2.4,0,.8.2,1.1.3-5.4-4.7-9.6-8.6-11.7-10.9-3.8-4.2-9.3-12-5.9-18.8,1.8-4,5.5-6.4,9.8-6.4s2.5.2,3.8.6c1.7.5,2.2.8,10,6,2.4,1.6,5.3,3.5,8.6,5.6-1-1.5-2-3.1-3-4.7-3-4.9-6.8-14.4-5-20.6.8-2.9,2.8-5.3,5.4-6.6,1.5-.8,3.2-1.2,4.9-1.2,4.9,0,8.3,3,11.5,5.9,1.1.9,2.1,1.9,3,3-.9-6.3,0-12.7,6.1-15.6,1.5-.7,3.1-1.1,4.7-1.1,6.3,0,10.6,5.1,14.8,10.7l.2.3c16.5,23.7,35.9,43.2,57.7,57.7,10.5,7,16.4,9.6,25.2,13.4,10,4.3,23.6,10.3,50.4,25.5,19.7,11.2,24.7,16.4,41.2,33.6l3.7,3.8c12.8,11.7,19.6,28.7,22.6,37.9l.5,1.5v1.5c0,10.9-3.1,19.6-9.9,27.4l-.4.4-.4.4c-11.1,10.1-21.9,11-31.1,11s-2.8,0-4.3,0h-.9l-.8-.2c-13.5-2.6-19.4-4.4-25.8-7-4.1-1.5-7.2-3.2-10-4.7-1.7-.9-3.2-1.7-4.7-2.4-3.5-.8-5.8-2.1-7.4-3-.3-.2-.7-.4-.9-.5h-2c-7.4-.2-11.7-2.6-14.3-4-.3-.1-.6-.3-.8-.4-3.2-.2-5.4-1.1-7.2-2,0,0-.1,0-.2-.1,0,0-.3,0-.7-.1-5.2.2-5.4.2-7.6,1.5h0c-3,1.9-6.4,4.1-11.7,4.1s-3-.2-4.7-.5c0,0-.1,0-.2.1-2.5,1.6-6.3,3.9-11.8,4.9l-2.2.4-2.2-.6c-.4-.1-.7-.2-.9-.2,0,0-.1.1-.2.1-1,.8-2.5,1.9-4.6,2.7-2.3.9-4.8,1.4-7.2,1.4s-5.1-.6-7-1h-.1c-1-.3-1.8-.5-2.5-.5-.6.2-1.6.8-2.4,1.1-2.9,1.5-6.5,3.3-11,3.3s-2.3-.1-3.4-.4c-.9.2-1.8.5-2.9.9-.9.3-1.8.6-2.8.9-3.4,1.3-6.6,2-9.6,2s-5-.5-7.2-1.4c-1.1.3-2.1.7-3.2,1.1-1.9.7-3.5,1.5-5,2.2-3.4,1.6-6.9,3.3-11.5,3.3s-2.1,0-3.2-.3c-1-.2-2-.4-3-.8-2.5,1.1-5,1.9-7.6,2.2-1,.1-2.1.3-3.4.3l.5.3Z"/>
    <path class="st8" d="M168.4,195.9c5.8,1.6,7.2.6,11-1.8,4.6-2.8,6.5-2.9,13.2-3.1,6.1.6,4.6,2.4,9.4,2.3,3.9.8,5.9,4.2,13.7,4.4,6.6-.4,6.6,2.6,12.8,3.8,5.2,2.1,8.9,5,15.2,7.4,5.3,2.1,10.4,3.9,24.1,6.5,10.8.2,19.2.2,28.5-8.3,5.2-6,7.5-12.4,7.4-20.8-1.7-5.3-7.8-22.7-20.1-33.8-19.5-20.2-23.1-24.6-42.9-35.9-50.1-28.6-52.4-23.5-76.2-39.4-16.6-11.1-38.9-29.4-60.3-60.3-3.3-4.5-5.6-6.7-6.8-6.7s-.2,0-.3,0c-1.3.7-1,7.2,2.5,15.5,4.3,10,11.9,19.1,19.1,29.2,5.8,8.2,11.6,15.7,17.3,22.7-7.9-5.6-16.4-12.3-25-20.1-11.1-10-20.2-19.9-27.6-28.8-1.5-2.2-3.6-4.8-6.5-7.5-2.6-2.4-4.2-3.7-5.3-3.2s.3,7.4,3.7,13c6.6,10.8,11.9,17.7,20.7,26.7,4.8,4.9,11,11.7,17.7,20.6-24-10.9-64-39-65.6-39.5s-1.4.3-1.7.7c-.4.7,1.5,4.6,4.3,7.7,5.9,6.6,33.4,29.1,44.8,38.4-10-2.4-20.2-5-30.5-7.7-9.6-2.5-27.2-7.8-28.2-7.6-1.1.2-1,1.2-1,1.7-.2,2.7,5.5,5.3,7.6,6.3,7,3.2,21.5,10.1,40.9,19.3-5.1-.5-10.4-1-15.8-1.3-6.2-.4-17.1-2.2-17.9-.8-1.5,4.5,6,6,8.4,8.6,2.7,2.8,9.8,4.5,11.8,7.4-2.1.3-4.2.7-6.4,1.1-1,.2-1.1.2-5.8,1.2-14.4,2.9-21.6,4.3-23.3,4.6-14.8,2.2-22.9.3-23.5,2.8-.4,1.6,2.6,3.9,4.4,4.9,2.7,1.4,4.5,1.2,8.6,2,1.4.3,2,.6,2.4.9.4.3-2.5,1.6-6.4,1.9-6.7.5-10.4.7-10.8,2.1-.4,1.4,2.7,3.4,3,3.6,3,1.9,9.6.9,12.5,1.9,1.4.5-2.9,2.4-2,4.6,1,4.9,8,.9,9.9,5.2,1.1,3.5,4.2,4.6,7.7,4.5,2.8,0,5.4,1.1,5.4,4.4,1.3,3.6,6.5,2.5,9.7,3.3,2,.4,5.3.2,5.4,2.7,2.8,3.9,9.4,1.7,12.8,5,1.8,1.3,3.5,3,5.6,3.8-9.6,6.9-19.2,13.9-29.1,20.3-5.2,3.3-15.9,10.2-14.7,16.4.5,2.8,3.3,4.7,5.5,5.8,1-.3,2-.5,3.1-.8,1.4-.3,2.7-.6,4-.9,0,.6,0,2.6,1.4,3.8s3.3,1,5.1.8,5.1-1,8.7-3.8c1,.8,2.6,2,4.9,2.4,4.4.8,7.3-2,14.4-4.7,1.9-.7,4.8-1.7,8.5-2.5,3.1,3.4,8,2.3,11.7.8,3.9-1.1,6-2.2,10-2.6,4.6,2.6,10.4-3.8,15.3-3.8s3.7.4,5.3.8c2.7.7,5.2,1.3,8.4,0,2.6-.9,4.1-5.1,11.9-3,7.2-1.2,10.3-6.4,13.8-5.4l.2.3Z"/>
    <path class="st8" d="M390.1,159.5l-8.2,3.6c-.2-.2-6.5-3.8-8-4.4s-5.1-2.3-5.8-2.3h-3.1c-2.1,0-2.9.3-3,.4h-.4c-.5.3-1.1.8-1.7,1.6h-.1c0,.1-.1.3-.1.3-1.6,2-1.8,2.3-1.9,3v.3c-.6,1.9-.8,4.8-.8,5.8-.3,5.7.5,11.6,1.3,17.8.6,5,1.3,10.1,1.5,15.5.4,8.8-.9,18.3-4.1,29.9-5.2,18.9-12.5,33.4-22.2,44.5-7.7,8.9-17.8,16.5-31.7,24.1-19.5,10.6-42.3,16.7-66.1,17.5-2.9.2-5.7.3-8.3.3-4.5,0-11-.4-11.9-.5s-4-.5-5.3-.9l-6.1-2.1-2.8-1.1c-1.3-.6-2.7-1.3-4-2-5.1-2.4-9.9-5.9-14.9-10.8-1.6.9-3.3,1.7-5.2,2.3-2.3.8-4.7,1.2-7,1.2-10.3,0-18.5-7.9-18.9-18.5v-.3c0-5.1,2-9.9,5.7-13.7,3.9-3.9,9.2-6.2,14.5-6.2s2.6.1,3.9.4c2.6.6,4.8,1.5,6.8,2.6,4.1-5.5,7.4-12.1,9.8-19.5h0c.3-1,.6-1.9.9-2.8l-8.1-2.3,3.3-18.7s10.5,1.1,11,1.2c.7-1.9,1.4-3.9,2.2-5.8v-.2l.2-.2c.3-.6.5-1.1.7-1.7,1.7-4,4.2-10,11.3-13.3h.3c1.8-.9,3.8-1.3,5.8-1.3,7.6,0,13.5,5.8,15.6,11.6,2.7,6.7,1.6,14.9-2.9,21.3-3.3,4.7-7.8,8.1-13.2,10-1,3.3-2,6.8-3.2,10.2-2,5.8-4.2,10.8-6.7,15.2-2.8,5-6,9.5-9.5,13.7,4.5,4.4,7.7,5.9,10.5,6.8,2.3.5,5,.9,8.2.9h6.2c6.6-1,12.5-2.1,18.1-3.5,19.3-4.8,54.5-17.3,73.9-47.8,5.1-8.3,8.9-18.3,12.4-27.9,1.3-4.2,2.2-8.7,2.6-13.4.4-4.5.3-9.2.3-14.2-.1-10.1-.2-20.5,3-31,1.5-5.2,4.8-9.5,6.4-11.4,2.9-3.8,6.6-6.9,10.7-8.9,1.2-.6,2.5-1.1,3.9-1.6-1.2-2.4-2.4-4.8-3.7-6.8-4.1-3.2-10.5-3.6-18.3-3.9h-2.8c-15.8,0-29.5,6.9-37.5,18.9l-4.8,7.2-16.8-8,2.6-8.3c7.8-24.7,32.1-40.6,61.9-40.6s1.9,0,2.9,0h.2c8.7,0,21.1,1.5,30.5,8.8,2.5,1.9,5.4,4.2,7.2,7.2,2,3,3.4,6,4.6,8.8,2.8,2,5.1,4,7.1,6.4l.2.2.2.2c6.2,7.9,8.6,16.9,6.7,25.2-1,4.8-3.9,8.3-6.1,10.9"/>
    <path class="st8" d="M381.6,129.5c-2.4-2.7-4.9-4.6-7.8-6.4-1.3-3.5-2.7-6.8-4.8-10-1-1.6-3.2-3.4-4.9-4.6-6.9-5.4-16.7-6.8-24.8-6.8-23.5-.9-47.7,10.1-55.1,33.6l1.2.6c11-16.5,29.7-24.2,48.9-23.2,8.8.3,18.2.8,25.1,6.8.1,0,.8.9,1.1,1.4,2,3.1,3.7,6.6,5.4,9.9,3.2,1.3,6.7,2.9,9.4,5,2,1.9,4,5.1,4.2,8.1-1.4-.7-2.9-1.3-4.4-1.7-2.3-.7-4.9-.9-7.3-.6h-2.2c-3,.4-6.2,1-9.1,2.4s-5.4,3.6-7.3,6.1c-1.8,2-3.9,5.2-4.6,8-4.3,14-1.7,29.1-2.9,43.3-.5,5.4-1.5,10.7-3.1,15.8-3.7,10.2-7.7,20.8-13.4,30-17.6,27.7-48.6,44.5-80,52.2-6.4,1.6-13,2.8-19.6,3.8h-7.3c-3,0-6.9-.4-10.6-1.3-5.8-1.8-11.1-5.1-17.5-12-1.5-1.4-2.8-3.1-4.1-4.7,5.9-5.2,10.7-11.5,14.6-18.3,2.5-4.3,4.4-9,6-13.6,1.8-5.1,3.2-10.3,4.7-15.3,5-.5,9.7-2.6,13-7.3,2.3-3.3,3.4-8.1,1.8-12-1-3.1-4.6-6.2-8.1-4.7-4.3,2-5.4,6.3-7.1,10.1-1.7,4.1-3.1,8.3-4.4,12.4-3.3.1-6.7-.3-9.9-.6v.5c2.9.8,6.2,1.5,9.4,1.7-1.4,4.6-2.7,9.1-4.2,13.6-3.7,11.4-9.6,22.2-18.3,30.4-2.7-3.1-5.7-5.9-9.9-6.8-5.7-1.2-12.1,3.7-12,9.6.3,6.9,6.4,10.5,12.7,8.2,2.5-.8,4.8-2.3,6.9-3.7,1-.7,2-1.5,2.9-2.2,1.5,1.8,3,3.5,4.3,4.7,5,5.2,9.4,8.4,13.8,10.4,2.6,1.6,5.3,2.7,9.3,3.7v.4c1.5.2,3.1.3,4.6.5h0c6,1,12.7,1,19.1.5,21.5-.7,42.8-5.9,61.8-16.3,10.6-5.8,21-12.7,29-21.9,10.2-11.5,16.1-26,20.1-40.5,2.4-8.7,4.2-17.8,3.8-26.8-.4-11.7-3.3-22.6-2.8-34.2.1-2.6.4-5.5,1.1-8,.7-2.8,2-4.5,3.9-6.8,1.6-2.1,3.5-3.7,5.9-4.7,2.9-1.3,6.4-1.3,9.7-1.2,4.1-.2,7.9,1.9,10.9,4.6.5.4,2.5,2.8,3,3.3,1.7-2.2,4.4-4.9,4.9-7.8,1.4-6.2-1-12.2-4.8-17l-.2-.6ZM215.2,225.4c1.1-2.6,2-6.3,4.3-7.8.3-.1.4-.1.6-.1,1,.2,1.8,1.3,2.3,2.4,2.2,4.9-1.1,10.6-5.4,13.3-1.6,1-3.3,1.7-5,2.2,1-3.4,2-6.7,3.2-10h0ZM178.7,285.7c-3,2.3-7.6,5.2-11.1,3.3-3.3-2.2-3.4-6.9,0-9.4,5.1-3.9,9.7-.4,13.8,4-.8.7-1.7,1.4-2.6,2.1h0Z"/>
  </g>
  <g id="surface11">
    <g>
      <path class="st9" d="M197.3,234.4c7,.8,14.4,1.6,20.5-2.3,4.4-2.7,7.6-8.4,5.4-13.4-.5-1.1-1.3-2.2-2.3-2.4-.2,0-.3,0-.6.1-2.3,1.5-3.2,5.2-4.3,7.8-3.2,8.9-5.4,18.3-8.6,27.6-1.6,4.6-3.6,9.3-6,13.6-4.9,8.7-11.4,16.6-19.6,22.4-2.1,1.5-4.3,3-6.9,3.8-6.3,2.3-12.5-1.3-12.8-8.2,0-6,6.3-10.9,12-9.6,7.9,1.7,11.4,9.6,16.7,14.8,12.8,13.8,21.1,13.3,38.5,14.9,0,0-.2,1.6-.2,1.6-18-1.2-26.7-.8-40.2-14.7-5.4-4.8-12.5-18.3-20.8-11.9-3.4,2.5-3.2,7.2,0,9.5,3.5,1.9,8.2-1,11.2-3.3,11.3-8.5,18.8-21.1,23.1-34.5,3-9,5.3-18.5,9.1-27.7,1.8-3.8,2.8-8.1,7.1-10.1,3.5-1.5,7.1,1.7,8.1,4.7,1.7,3.9.6,8.7-1.8,12-6.5,9.3-18.4,8.3-27.9,5.6,0,0,0-.5,0-.5h0Z"/>
      <path class="st10" d="M219,301.9c-5-.1-12.4-.8-17.3-4-12.4-8.1-16.9-15-16.9-15,0,0,4,7.7,12.9,14.4s9.1,6.6,19.2,8.2c20.6,3.3,48-4.4,51.4-4.6,0,0-23.7,0-23.6-.8.3-1.6-5.8,2.4-25.7,1.8Z"/>
    </g>
    <text class="st1" transform="translate(42.1 274.1)"><tspan x="0" y="0">BIRD</tspan></text>
    <text class="st3" transform="translate(206.2 274.1)"><tspan x="0" y="0">ab</tspan></text>
    <g class="st11">
      <rect class="st5" x="22.1" y="-6.7" width="309.2" height="212.7" transform="translate(-13.2 28.3) rotate(-8.8)"/>
    </g>
    <path class="st6" d="M59.3,112.6c-14.4,2.9-21.6,4.3-23.4,4.6-14.8,2.2-22.9.3-23.6,2.8-.4,1.6,2.6,3.9,4.4,4.9,2.7,1.4,4.5,1.2,8.7,2,1.4.3,2,.6,2.4.9s-2.5,1.6-6.4,1.9c-6.7.5-10.4.7-10.8,2.1-.4,1.4,2.7,3.4,3,3.6,3,1.9,9.7.9,12.5,1.9s-2.9,2.4-2,4.7c1,4.9,8,.9,9.9,5.2,1.1,3.5,4.2,4.6,7.7,4.5,2.8,0,5.4,1.1,5.4,4.4,1.3,3.6,6.5,2.5,9.7,3.3,2,.4,5.3.2,5.4,2.7,2.9,3.9,9.4,1.7,12.8,5,2.7,2,5.3,4.9,9.3,4.2,2.7.2,5.9-.5,8.4.2.8,1.2,1.8,2.3,3,3.1,3.5-3.7,9.6-4.9,13.1-8.6,8.9-8.8,21-10.3,31.2-17.6,12.1-8.3,17.3-15.7,31.5-20l8.3-5.5c10.9-2.1,12.6-4.4,23.6-3.2,15,.8,16.9,3.2,32.5,6.3,9,2.3,12.1,4.1,27.5,12.1,15.1,8.2,33.8,23.9,35.1,36.6-.8-8.1-8.1-18-13.9-23.4-10.3-9.4-20.8-19.5-30.1-24.1-16.7-8.2-17.9-8.4-34.9-12.1-13.6-3-27.7-5.5-49.8-6.1-7.1-.2-18.6-.5-33.2-1-11.4-.6-25.4-.9-40.5,0-7.4.4-18.5,1.1-31.1,3.5-1,.2-1.1.2-5.8,1.2Z"/>
    <g class="st7">
      <rect class="st4" x="118.4" y="35.1" width="107.1" height="267.6" transform="translate(-4.1 333.5) rotate(-87.6)"/>
    </g>
    <path class="st2" d="M285.1,134c7.4-23.5,31.7-34.6,55.2-33.7,8.2,0,18,1.4,24.9,6.8,1.7,1.2,3.9,3,4.9,4.6,2.4,3.6,3.9,7.5,5.4,11.5,0,0-2.5-2.7-2.5-2.7,3.7,2.2,6.9,4.4,9.8,7.6,3.8,4.8,6.2,10.8,4.8,17-.5,2.8-3.2,5.6-4.9,7.8-.5-.5-2.4-2.9-3-3.3-3-2.7-6.8-4.8-10.9-4.6-3.3-.2-6.8-.1-9.7,1.2-2.3,1-4.3,2.6-5.9,4.7-1.9,2.3-3.1,4-3.9,6.8-.7,2.5-1,5.4-1.2,8.1-.5,11.6,2.4,22.5,2.8,34.3.4,9.1-1.3,18.2-3.8,26.9-4,14.6-10,29.1-20.2,40.6-8,9.2-18.4,16.2-29,21.9-26.1,14.2-56.5,18.8-85.7,15.3,0,0,0-1.3,0-1.3,11.3-1.2,22.6-2.8,33.7-5.5,31.4-7.8,62.5-24.5,80.1-52.3,5.7-9.2,9.7-19.8,13.4-30,1.6-5.1,2.7-10.3,3.1-15.8,1.1-14.2-1.4-29.3,2.9-43.4.8-2.8,2.8-5.9,4.6-8,1.8-2.5,4.4-4.7,7.3-6.1,2.9-1.4,6.1-2,9.2-2.2,0,0,2.2-.1,2.2-.1,2.4-.3,5-.1,7.3.6,3.2,1,6.1,2.4,8.8,4.4,0,0-5,.5-5,.5,2.1-3.5-.8-8.7-3.5-11.3-2.7-2.1-6.3-3.8-9.4-5-1.7-3.3-3.4-6.9-5.4-9.9-.3-.5-1-1.4-1.1-1.4-6.9-6-16.3-6.5-25.1-6.8-19.2-.9-38,6.7-49,23.3,0,0-1.2-.6-1.2-.6h0Z"/>
  </g>
</svg>