<?xml version="1.0" encoding="UTF-8"?>
<svg id="Layer_1" xmlns="http://www.w3.org/2000/svg" xmlns:xlink="http://www.w3.org/1999/xlink" version="1.1" viewBox="0 0 313 285.4">
  <!-- Generator: Adobe Illustrator 30.6.0, SVG Export Plug-In . SVG Version: 2.1.4 Build 109)  -->
  <defs>
    <style>
      .st0, .st1 {
        fill: none;
      }

      .st1 {
        stroke: #142a4f;
        stroke-miterlimit: 8.3;
        stroke-width: .8px;
      }

      .st2 {
        fill: #4f7094;
      }

      .st3 {
        clip-path: url(#clippath-1);
      }

      .st4 {
        clip-path: url(#clippath-3);
      }

      .st5 {
        clip-path: url(#clippath-4);
      }

      .st6 {
        clip-path: url(#clippath-2);
      }

      .st7 {
        fill: #142a50;
      }

      .st8 {
        fill: #132a4e;
      }

      .st9 {
        fill: #b3c1d0;
      }

      .st10 {
        clip-path: url(#clippath);
      }
    </style>
    <clipPath id="clippath">
      <rect class="st0" x="132.2" y="248.2" width="93.8" height="37.3"/>
    </clipPath>
    <clipPath id="clippath-1">
      <rect class="st0" x="20.9" y="33.2" width="219.1" height="141.1"/>
    </clipPath>
    <clipPath id="clippath-2">
      <path class="st0" d="M72.6,33.4c-1.1.5-.9,6,2.1,12.9,3.6,8.3,9.9,15.9,15.9,24.3,4.8,6.8,9.6,13.1,14.3,18.9-6.6-4.7-13.6-10.2-20.8-16.7-9.2-8.3-16.7-16.5-22.9-23.9-1.2-1.8-3-4-5.4-6.2-2.2-2-3.5-3.1-4.4-2.7-.9.4.2,6.2,3,10.8,5.5,9,9.9,14.7,17.2,22.2,4,4.1,9.1,9.7,14.7,17.1-19.9-9-53.1-32.4-54.4-32.8-1.3-.4-1.2.2-1.4.6-.4.6,1.3,3.8,3.6,6.4,4.9,5.5,27.7,24.2,37.2,31.9-8.3-2-16.8-4.1-25.3-6.4-8-2.1-22.6-6.5-23.5-6.3-.9.1-.8,1-.9,1.4-.2,2.3,4.5,4.4,6.3,5.2,5.8,2.7,17.8,8.4,34,16-4.2-.4-8.6-.8-13.1-1.1-5.1-.3-14.2-1.9-14.9-.7-1.2,3.8,5,5,7,7.2,2.9,3,11.7,4.4,9.9,8.5-2.9,3.2-.7,8.7,3.3,9.9,2.5,1.7,6.5,2.1,8.3,4.5.2,0,.4,0,.6,0,8.6-1,17.3-1.3,25.9-1.3,11.3-.2,22.2,2.3,33.2,3.7,9.3-.6,18.5.4,27.7,1,13.3,1.2,23.6,1.7,36.8,3.4,5.6,1.3,10,2.7,13.9,4.1,9.6,3.6,17.1,7.4,22.7,10.7,8.9,5.2,13.1,9.2,14.9,12.2-1.4-4.1-4.6-10-10.9-16.5-16.2-16.8-19.1-20.4-35.6-29.8-41.6-23.7-43.5-19.5-63.2-32.7-13.8-9.2-32.3-24.4-50.1-50.1-2.8-3.7-4.6-5.6-5.6-5.6s-.2,0-.3,0M238.9,173.9c-.8.8,2.3-1.1-.7-5.9,1.1,3.3,1.1,5.5.7,5.9Z"/>
    </clipPath>
    <clipPath id="clippath-3">
      <rect class="st0" x="21.8" y="122" width="222.5" height="83.8"/>
    </clipPath>
    <clipPath id="clippath-4">
      <path class="st0" d="M118.5,130.5c-9.7,3.7-18.1,10-27.1,15.1-20,11.5-37.8,26.5-57.3,39-4.3,2.8-13.2,8.4-12.2,13.6.4,2.3,2.7,3.9,4.6,4.8.8-.2,1.7-.4,2.6-.6,1.1-.3,2.2-.5,3.3-.8,0,.5,0,2.1,1.2,3.2,1.1,1,2.7.8,4.2.7,1.5-.2,4.2-.8,7.2-3.1.8.7,2.2,1.7,4.1,2,3.6.6,6.1-1.6,12-3.9,1.6-.6,3.9-1.4,7-2.1,2.6,2.8,6.6,1.9,9.7.6,3.2-.9,4.9-1.8,8.3-2.1,3.8,2.2,8.6-3.1,12.7-3.1,1.6,0,3.1.3,4.4.7,2.3.6,4.4,1.1,7,0,2.1-.7,3.4-4.2,9.9-2.5,5.9-1,8.5-5.3,11.5-4.5,4.8,1.3,6,.5,9.1-1.5,3.8-2.3,5.4-2.4,11-2.5,5.1.5,3.8,2,7.8,1.9,3.3.7,4.9,3.5,11.4,3.7,5.5-.3,5.5,2.2,10.6,3.2,4.3,1.8,7.4,4.2,12.6,6.1,4.4,1.8,8.6,3.2,20,5.4,8.9.2,15.9.1,23.6-6.9,4.3-5,6.2-10.3,6.2-17.3-1.4-4.4-6.5-18.8-16.6-28-2.7-2.5-8-6.5-14.2-10.2-2.6-1.5-4.6-2.6-6.6-3.6-7.3-3.7-13.5-6.1-16.8-7.4-6.1-2.3-12.6-4.7-21.6-6.3-4.1-.7-7.5-1.1-10-1.3h-1.9c0,0-2-.2-2-.2-12.2.4-24.2,3.9-35.7,8Z"/>
    </clipPath>
  </defs>
  <g id="surface1">
    <path class="st8" d="M173,276.4c-4.1-.1-10.3-.7-14.4-3.3-10.3-6.7-14-12.4-14-12.4,0,0,3.3,6.4,10.7,11.9,4.7,3.5,7.6,5.5,15.9,6.8,17,2.7,39.8-3.6,42.6-3.8,0,0-19.7,0-19.6-.6.2-1.3-4.8,2-21.3,1.5"/>
    <g class="st10">
      <path class="st1" d="M173,276.4c-4.1-.1-10.3-.7-14.4-3.3-10.3-6.7-14-12.4-14-12.4,0,0,3.3,6.4,10.7,11.9,4.7,3.5,7.6,5.5,15.9,6.8,17,2.7,39.8-3.6,42.6-3.8,0,0-19.7,0-19.6-.6.2-1.3-4.8,2-21.3,1.5Z"/>
    </g>
    <g class="st3">
      <g class="st6">
        <path class="st7" d="M26.6,208.1L0,36.7,236.1,0l26.7,171.4L26.6,208.1Z"/>
      </g>
    </g>
    <path class="st2" d="M40.6,119.5c-11.9,2.4-17.9,3.6-19.4,3.8-12.3,1.8-19,.2-19.5,2.3-.3,1.4,2.1,3.2,3.7,4.1,2.2,1.2,3.7,1,7.2,1.7,1.2.2,1.7.5,2,.8.3.2-2.1,1.3-5.3,1.6-5.6.4-8.7.6-9,1.8-.3,1.2,2.3,2.8,2.5,2.9,2.5,1.6,8,.8,10.4,1.5,1.1.4-2.4,2-1.7,3.9.8,4.1,6.6.8,8.2,4.3.9,2.9,3.5,3.8,6.4,3.7,2.3,0,4.5.9,4.5,3.6,1.1,3,5.4,2.1,8,2.8,1.6.3,4.4.1,4.5,2.2,2.4,3.2,7.8,1.4,10.6,4.2,2.3,1.7,4.4,4.1,7.7,3.5,2.3.2,4.9-.4,6.9.2.6,1,1.5,1.9,2.5,2.6,2.9-3.1,7.9-4.1,10.8-7.1,7.4-7.3,17.4-8.6,25.9-14.6,10-6.9,14.3-13,26.1-16.6l6.9-4.6c9-1.7,10.5-3.6,19.6-2.7,12.5.7,14,2.6,26.9,5.2,7.5,1.9,10,3.4,22.8,10,12.5,6.8,28,19.8,29.1,30.3-.7-6.7-6.7-14.9-11.6-19.4-8.5-7.8-17.2-16.1-24.9-19.9-13.8-6.8-14.8-6.9-28.9-10-11.3-2.4-23-4.6-41.3-5.1-5.9-.1-15.4-.4-27.5-.9-9.5-.5-21-.8-33.5,0-6.1.3-15.4.9-25.8,2.9-.8.2-.9.2-4.8,1"/>
    <g class="st4">
      <g class="st5">
        <path class="st9" d="M17.5,205.8l3.9-92.6,226.2,9.6-3.9,92.6-226.2-9.6Z"/>
      </g>
    </g>
    <path class="st7" d="M227.7,137.3c6.2-19.5,26.3-28.7,45.8-27.9,6.8,0,14.9,1.2,20.6,5.6,1.4,1,3.2,2.5,4,3.8,2,3,3.3,6.2,4.5,9.5l-2.1-2.2c3.1,1.8,5.7,3.6,8.1,6.3,3.1,4,5.2,8.9,4,14.1-.4,2.4-2.7,4.6-4.1,6.5-.4-.4-2-2.4-2.5-2.8-2.5-2.2-5.6-3.9-9-3.8-2.7-.2-5.6-.1-8,1-1.9.8-3.6,2.2-4.9,3.9-1.6,1.9-2.6,3.3-3.2,5.7-.6,2.1-.8,4.5-1,6.7-.4,9.6,2,18.7,2.3,28.4.4,7.5-1.1,15.1-3.1,22.3-3.3,12.1-8.2,24.1-16.7,33.6-6.7,7.7-15.3,13.4-24.1,18.2-21.6,11.8-46.8,15.6-71,12.7v-1.1c9.4-1,18.8-2.3,27.9-4.6,26.1-6.4,51.8-20.3,66.4-43.3,4.7-7.6,8-16.4,11.1-24.9,1.4-4.2,2.2-8.6,2.6-13.1.9-11.8-1.2-24.3,2.4-35.9.6-2.3,2.3-4.9,3.8-6.6,1.5-2.1,3.6-3.9,6-5.1,2.4-1.2,5.1-1.7,7.6-1.9h1.8c2-.4,4.2-.2,6.1.4,2.7.8,5,2,7.3,3.6l-4.2.4c1.7-2.9-.6-7.2-2.9-9.3-2.2-1.7-5.2-3.1-7.8-4.2-1.4-2.7-2.8-5.7-4.5-8.2-.3-.4-.8-1.1-.9-1.2-5.7-5-13.5-5.4-20.8-5.6-15.9-.8-31.5,5.6-40.6,19.3l-1-.5"/>
  </g>
</svg>