<?xml version="1.0" encoding="UTF-8"?>
<svg id="Layer_1" xmlns="http://www.w3.org/2000/svg" version="1.1" viewBox="0 0 46.5 26.5">
  <!-- Generator: Adobe Illustrator 30.6.0, SVG Export Plug-In . SVG Version: 2.1.4 Build 109)  -->
  <defs>
    <style>
      .st0, .st1, .st2 {
        isolation: isolate;
      }

      .st0, .st3, .st4, .st2, .st5, .st6 {
        fill: none;
        stroke-linecap: round;
      }

      .st0, .st3, .st4, .st5, .st6 {
        stroke: #14284f;
      }

      .st0, .st6 {
        stroke-miterlimit: 10;
      }

      .st1 {
        fill: #14284f;
        opacity: .2;
      }

      .st3 {
        stroke-width: 2.2px;
      }

      .st3, .st5 {
        stroke-linejoin: round;
      }

      .st4, .st5 {
        stroke-width: 2.4px;
      }

      .st2 {
        opacity: .5;
        stroke: #7d97b6;
        stroke-width: 1.8px;
      }
    </style>
  </defs>
  <path class="st1" d="M.5,23.2c10.8-5.9,25.7-8.2,36.9-5.8.8.2.4,1,1.2,1.3-1,1.3-1.3,1.6-4.2,2.5-6.6,2.1-17.2-3.4-25.9.6-3.6.2-4.4,1.8-7.9,1.5h-.1Z"/>
  <path class="st6" d="M.5,23.2c11.6-6.3,40.6-9.9,37.8-4.1"/>
  <path class="st0" d="M.5,23.2c8.4-1.8,11.3-2.6,15.4-2.8,4.1-.2,11.7,2.2,16.1,1.6s5.5-1.3,6.3-2.9"/>
  <path class="st2" d="M4.9,17.8c8.4-2.5,19.6-5.5,27.6-4.8s8.7,1.4,12.9.8"/>
  <path class="st3" d="M23.8,15.9V1.9M19.5,4.8l4.2-3.7,4.2,3.7"/>
  <path class="st2" d="M1.5,25.6c6.8-2.5,12-1.9,16.2-1.8,8.2.9,13.9,1,18.2,0,4.3-1,6.3-4,9.7-3.4"/>
  <path class="st4" d="M25.9,24.8c2.6-.1,6.8-2,6.8-4.9s-.5-5.4-4.1-8.9"/>
  <path class="st5" d="M27.7,14.2l-.2-4.9,4.7.7"/>
</svg>