<?xml version="1.0" encoding="UTF-8"?>
<svg id="Layer_1" xmlns="http://www.w3.org/2000/svg" version="1.1" viewBox="0 0 47.4 38.7">
  <!-- Generator: Adobe Illustrator 30.6.0, SVG Export Plug-In . SVG Version: 2.1.4 Build 109)  -->
  <defs>
    <style>
      .st0 {
        opacity: .8;
      }

      .st0, .st1 {
        stroke-width: 1.8px;
      }

      .st0, .st1, .st2 {
        fill: none;
        stroke-linecap: round;
      }

      .st0, .st3 {
        stroke: #14284f;
      }

      .st4 {
        isolation: isolate;
        opacity: .2;
      }

      .st4, .st3, .st5 {
        fill: #14284f;
      }

      .st1 {
        stroke: #7d97b6;
        stroke-dasharray: 1.5 3.5;
      }

      .st2 {
        stroke: #4f5e7b;
        stroke-width: 1.8px;
      }

      .st2, .st3 {
        stroke-miterlimit: 10;
      }
    </style>
  </defs>
  <path class="st1" d="M8,11.4c3.8-1.2,3.6-2.5,9.4-3.9s4.5-.4,8.3,1.3,18.5,9.8,19.8,11.7"/>
  <path class="st4" d="M6.9,17.6l-3.9-1.9"/>
  <path class="st1" d="M8,33.9c3.8-1.2,8.9-7.2,14.8-8.7,4.3-1.1,11.2-2.4,15.4-2.8,3.7-.3,4.3-1.3,7.4-1.9"/>
  <path class="st5" d="M4.5,0c.3,0,.6,1.8,1.4,2.7s1.5,1.4,1.6,2.7c.3,2.4-.1,4.6-3,4.6s-2.9-1.9-2.9-4.3,1-1.9,1.6-3S4.1,0,4.5,0Z"/>
  <path class="st5" d="M4.6,37.8c-1.4,0-4.6-9.8-4.6-16.9S2.1,7.9,4.6,7.9s4.6,5.8,4.6,12.9-2.8,16.9-4.6,16.9Z"/>
  <circle class="st3" cx="17.9" cy="7.5" r="1.3"/>
  <circle class="st3" cx="25.7" cy="8.8" r="1.3"/>
  <circle class="st3" cx="45.6" cy="20.5" r="1.3"/>
  <circle class="st3" cx="38.1" cy="22.5" r="1.3"/>
  <circle class="st3" cx="22.8" cy="25.2" r="1.3"/>
  <circle class="st3" cx="7.8" cy="33.5" r="1.3"/>
  <circle class="st3" cx="7.1" cy="11.9" r="1.3"/>
  <g>
    <path class="st0" d="M25.8.9c10,9.7,8.7,24.6,1,35.5"/>
    <polyline class="st2" points="24.8 31.4 25.6 37.5 32.3 35.9"/>
  </g>
</svg>